<svg xmlns="http://www.w3.org/2000/svg" width="26" height="26" viewBox="0 0 26 26">
  <defs>
    <style>
      .cls-1 {
        fill: #fff;
        fill-rule: evenodd;
      }
    </style>
  </defs>
  <path id="Basket_icon" class="cls-1" d="M1511.31,57h3.13a1.315,1.315,0,0,1,1.31,1.315V58.4a1.315,1.315,0,0,1-1.31,1.315h-3.13A1.315,1.315,0,0,1,1510,58.4V58.315A1.315,1.315,0,0,1,1511.31,57Zm3.44,2.625h19.97a1.252,1.252,0,0,1,1.25,1.254v0.087a1.252,1.252,0,0,1-1.25,1.253h-19.97a1.252,1.252,0,0,1-1.25-1.253V60.878A1.252,1.252,0,0,1,1514.75,59.625Zm0.98,0.641,2.56,16.856a1.244,1.244,0,0,1-1.03,1.428l-0.12.02a1.252,1.252,0,0,1-1.44-1.031l-2.56-16.856a1.251,1.251,0,0,1,1.04-1.428l0.12-.02A1.247,1.247,0,0,1,1515.73,60.265Zm0.72,10.516h16.7a1.321,1.321,0,0,1,1.32,1.324v0.1a1.321,1.321,0,0,1-1.32,1.323h-16.7a1.33,1.33,0,0,1-1.33-1.323V72.1A1.33,1.33,0,0,1,1516.45,70.781Zm0.49,5.281h14.72a1.185,1.185,0,0,1,1.18,1.188v0.125a1.185,1.185,0,0,1-1.18,1.187h-14.72a1.187,1.187,0,0,1-1.19-1.187V77.25A1.187,1.187,0,0,1,1516.94,76.062Zm14.84-3.952,1.5-9.318a1.254,1.254,0,0,1,1.41-1.068l0.24,0.033a1.25,1.25,0,0,1,1.08,1.4l-1.51,9.317a1.245,1.245,0,0,1-1.4,1.068l-0.25-.033A1.25,1.25,0,0,1,1531.78,72.11Zm-12.72,8.077a1.48,1.48,0,1,1-1.94,1.406A1.74,1.74,0,0,1,1519.06,80.188Zm11.97,0a1.48,1.48,0,1,1-1.94,1.406A1.74,1.74,0,0,1,1531.03,80.188ZM1521.72,61.5h0a0.5,0.5,0,0,1,.5.5v9.57a0.5,0.5,0,0,1-.5.5h0a0.5,0.5,0,0,1-.5-0.5V62A0.5,0.5,0,0,1,1521.72,61.5Zm5.28,0a0.5,0.5,0,0,1,.5.5v9.563a0.5,0.5,0,0,1-1,0V62A0.5,0.5,0,0,1,1527,61.5Zm-10.27,4.75h16.63a0.478,0.478,0,0,1,.48.482V66.8a0.478,0.478,0,0,1-.48.482h-16.63a0.484,0.484,0,0,1-.48-0.482V66.732A0.484,0.484,0,0,1,1516.73,66.25Z" transform="translate(-1510 -57)"/>
</svg>
