<svg xmlns="http://www.w3.org/2000/svg" width="60" height="60" viewBox="0 0 60 60">
  <defs>
    <style>
      .cls-1 {
        fill: none;
        stroke: #fff;
        stroke-width: 2px;
        fill-rule: evenodd;
      }
    </style>
  </defs>
  <path id="LEFT_BUTTON_ACTIVE" class="cls-1" d="M33,461H71a10,10,0,0,1,10,10v38a10,10,0,0,1-10,10H33a10,10,0,0,1-10-10V471A10,10,0,0,1,33,461Zm12.97,26.53a3.3,3.3,0,0,1,4.77,0l8.24,8.52a3.573,3.573,0,0,1,0,4.933,3.3,3.3,0,0,1-4.771,0l-8.24-8.52A3.573,3.573,0,0,1,45.97,487.53Zm0,0,8.24-8.52a3.3,3.3,0,0,1,4.771,0,3.573,3.573,0,0,1,0,4.933l-8.24,8.52a3.3,3.3,0,0,1-4.77,0A3.573,3.573,0,0,1,45.97,487.53Z" transform="translate(-22 -460)"/>
</svg>
