<?xml version="1.0" encoding="UTF-8" standalone="no"?>
<svg
   xmlns:dc="http://purl.org/dc/elements/1.1/"
   xmlns:cc="http://creativecommons.org/ns#"
   xmlns:rdf="http://www.w3.org/1999/02/22-rdf-syntax-ns#"
   xmlns:svg="http://www.w3.org/2000/svg"
   xmlns="http://www.w3.org/2000/svg"
   xmlns:sodipodi="http://sodipodi.sourceforge.net/DTD/sodipodi-0.dtd"
   xmlns:inkscape="http://www.inkscape.org/namespaces/inkscape"
   width="160"
   height="50"
   viewBox="0 0 160 49.999999"
   version="1.1"
   id="svg15"
   sodipodi:docname="logo-icon-black.svg"
   inkscape:version="0.92.1 r15371">
  <metadata
     id="metadata19">
    <rdf:RDF>
      <cc:Work
         rdf:about="">
        <dc:format>image/svg+xml</dc:format>
        <dc:type
           rdf:resource="http://purl.org/dc/dcmitype/StillImage" />
        <dc:title></dc:title>
      </cc:Work>
    </rdf:RDF>
  </metadata>
  <sodipodi:namedview
     pagecolor="#ffffff"
     bordercolor="#666666"
     borderopacity="1"
     objecttolerance="10"
     gridtolerance="10"
     guidetolerance="10"
     inkscape:pageopacity="0"
     inkscape:pageshadow="2"
     inkscape:window-width="2560"
     inkscape:window-height="1346"
     id="namedview17"
     showgrid="false"
     inkscape:zoom="8"
     inkscape:cx="99.33038"
     inkscape:cy="39.837359"
     inkscape:window-x="-11"
     inkscape:window-y="-11"
     inkscape:window-maximized="1"
     inkscape:current-layer="svg15" />
  <g
     id="g4044"
     transform="translate(10.94407,2.1035534)">
    <path
       style="stroke-width:7.60039425"
       inkscape:connector-curvature="0"
       id="path21"
       d="m 81.887045,-1.990626 a 4.4209263,4.3526925 0 0 0 -4.413325,4.345208 4.4209263,4.3526925 0 0 0 4.413325,4.359937 4.4209263,4.3526925 0 0 0 4.428277,-4.359937 4.4209263,4.3526925 0 0 0 -4.428277,-4.345208 z m -0.224431,1.178361 a 3.2278655,3.1780458 0 0 1 0.224431,0 3.2278655,3.1780458 0 0 1 3.231443,3.166847 3.2278655,3.1780458 0 0 1 -3.231443,3.181576 3.2278655,3.1780458 0 0 1 -3.231459,-3.181576 3.2278655,3.1780458 0 0 1 3.007051,-3.166847 z" />
    <path
       style="stroke-width:7.60039425"
       inkscape:connector-curvature="0"
       id="path21-9"
       d="m 56.780795,-1.990626 a 4.4209263,4.3526925 0 0 0 -4.428284,4.345208 4.4209263,4.3526925 0 0 0 4.428284,4.359937 4.4209263,4.3526925 0 0 0 4.413325,-4.359937 4.4209263,4.3526925 0 0 0 -4.413325,-4.345208 z m -0.239367,1.178361 a 3.2278655,3.1780458 0 0 1 0.239367,0 3.2278655,3.1780458 0 0 1 3.216491,3.166847 3.2278655,3.1780458 0 0 1 -3.216491,3.181576 3.2278655,3.1780458 0 0 1 -3.231451,-3.181576 3.2278655,3.1780458 0 0 1 2.992084,-3.166847 z" />
    <path
       id="path38"
       d="M 56.270238,6.007042 A 13.539087,13.330121 0 0 0 68.992894,14.891808 13.539087,13.330121 0 0 0 81.727269,6.007042 H 79.405004 A 11.317012,11.142342 0 0 1 68.992894,12.887901 11.317012,11.142342 0 0 1 58.551488,6.007042 Z"
       style="stroke-width:7.60039425"
       inkscape:connector-curvature="0" />
    <path
       inkscape:connector-curvature="0"
       id="rect3776"
       d="M 67.667969,4.611328 V 16.4375 h 2.751953 V 4.611328 Z"
       style="stroke-width:7.60039425" />
  </g>
  <path
     id="THE_BIKE_SHOP"
     data-name="THE BIKE SHOP"
     class="cls-1"
     d="M 14.047369,18.367847 H 145.97828 a 13.887465,13.718527 0 0 1 13.88746,13.718527 v 4.156713 A 13.887465,13.718527 0 0 1 145.97828,49.961614 H 14.047369 A 13.887465,13.718527 0 0 1 0.15990204,36.243087 V 32.086374 A 13.887465,13.718527 0 0 1 14.047369,18.367847 Z M 150.48476,34.432241 a 3.6426822,3.5983694 0 0 1 -2.83721,0.974016 h -1.62067 v 7.023886 h -1.10265 V 27.051674 h 2.47612 a 4.2856718,4.2335373 0 0 1 2.85804,0.603617 3.2552218,3.2156226 0 0 1 0.85551,2.812298 v 1.742254 a 3.0552424,3.0180758 0 0 1 -0.62912,2.2224 z m -0.45135,-2.222401 v -1.330696 c 0,-1.371853 -0.0221,-2.112654 -0.65273,-2.565366 a 2.3483704,2.3198027 0 0 0 -1.68732,-0.370397 h -1.68872 v 6.571174 h 1.80537 a 2.2817105,2.2539539 0 0 0 1.71094,-0.535025 2.4997438,2.4693347 0 0 0 0.51246,-1.76969 z m -15.44145,10.412362 a 3.3829866,3.3418331 0 0 1 -2.47614,-0.932861 3.802388,3.7561326 0 0 1 -0.69439,-2.551645 v -8.670108 a 5.8327354,5.7617811 0 0 1 0.2486,-1.742254 2.9441426,2.9083276 0 0 1 3.03858,-1.852001 3.4593676,3.4172849 0 0 1 2.02618,0.562458 3.8329405,3.7863133 0 0 1 1.12489,3.36104 v 8.491767 a 3.5690785,3.5256612 0 0 1 -0.47357,2.002905 3.0635749,3.0263069 0 0 1 -2.79555,1.330697 z m 2.20531,-11.235473 a 5.5549861,5.4874105 0 0 0 -0.38194,-2.592802 1.5276212,1.5090379 0 0 0 -0.72075,-0.727086 2.3608691,2.3321494 0 0 0 -1.05822,-0.233211 2.2469919,2.2196575 0 0 0 -1.21516,0.329247 2.3969765,2.3678176 0 0 0 -0.92351,2.085216 v 8.478048 a 5.577206,5.5093602 0 0 0 0.18049,1.742254 2.01646,1.9919301 0 0 0 1.98035,1.193512 2.0553449,2.0303419 0 0 0 1.23877,-0.370398 2.6594496,2.6270978 0 0 0 0.8999,-2.414461 z m -13.50695,3.429631 h -4.09679 v 7.613783 h -1.08045 V 27.051674 h 1.08045 V 33.8835 h 4.09679 v -6.831826 h 1.111 v 15.378469 h -1.111 z m -14.56377,-0.493865 a 21.182551,20.924869 0 0 1 1.62066,1.67366 4.3481654,4.2952705 0 0 1 1.01239,3.031795 4.5162037,4.4612647 0 0 1 -0.56244,2.51049 3.0830173,3.0455129 0 0 1 -2.70111,1.12492 4.1662395,4.1155578 0 0 1 -1.82343,-0.370397 3.7260069,3.6806806 0 0 1 -0.51796,-0.370398 2.7247207,2.6915748 0 0 1 -0.78741,-1.1112 3.380209,3.3390894 0 0 1 -0.18059,-1.234667 v -2.181255 h 1.111 v 1.234668 c 0,0.329246 -0.024,0.63105 0,0.960296 a 2.0720098,2.0468041 0 0 0 2.34004,2.140091 2.1511684,2.1249998 0 0 0 1.1485,-0.288088 2.3455929,2.317059 0 0 0 0.8777,-2.23612 3.7260069,3.6806806 0 0 0 -0.56243,-2.208683 12.432058,12.280825 0 0 0 -1.80538,-1.975468 15.819212,15.626773 0 0 1 -1.82343,-1.948031 4.5439787,4.4887018 0 0 1 -0.8999,-2.853453 6.9437327,6.8592632 0 0 1 0.0903,-1.152356 2.5872348,2.5557615 0 0 1 2.90387,-2.23612 3.7885005,3.742414 0 0 1 1.86786,0.425273 3.4010403,3.359667 0 0 1 1.10267,3.127823 v 1.1112 h -1.08049 v -1.37185 a 4.1967919,4.1457387 0 0 0 -0.0684,-1.02889 1.5956697,1.5762586 0 0 0 -1.80536,-1.358134 1.8234242,1.8012425 0 0 0 -1.91369,2.318431 3.9759814,3.9276141 0 0 0 1.37345,3.114105 c 0.34022,0.384123 0.69998,0.75452 1.08324,1.152357 z M 85.534481,33.924656 h 3.737109 v 0.946577 h -3.73155 v 6.598612 h 4.524526 v 0.960298 H 84.456813 V 27.051674 h 5.627197 v 0.946579 h -4.54397 v 5.926404 z m -8.418575,8.505487 -2.90387,-7.984184 -1.170713,2.140091 v 5.844093 H 71.960876 V 27.051674 h 1.108219 v 7.531472 l 3.962094,-7.531472 h 1.237372 l -3.376035,6.118463 3.421864,9.260006 H 77.121464 Z M 63.699223,27.051674 h 1.148491 v 15.378469 h -1.148491 z m -9.747609,15.378469 h -3.17329 V 27.051674 h 3.016357 a 2.1595008,2.1332309 0 0 1 2.588626,2.414462 v 2.290993 a 3.4968639,3.4543249 0 0 1 -0.11249,1.042608 1.9970175,1.9727241 0 0 1 -1.756762,1.275823 3.3482679,3.3075368 0 0 1 1.68871,0.589899 2.7205544,2.6874593 0 0 1 0.742938,2.263558 v 2.647676 a 2.6705596,2.6380726 0 0 1 -0.787418,2.194964 3.2885518,3.248547 0 0 1 -2.201159,0.658493 z M 55.302861,31.510195 V 29.658194 A 2.690002,2.6572786 0 0 0 55.19037,28.76649 1.7942606,1.7724336 0 0 0 53.276683,27.957095 h -1.388748 v 5.706907 h 1.080439 a 3.2816081,3.2416878 0 0 0 1.080448,-0.123469 1.8511991,1.8286796 0 0 0 1.259595,-2.030342 z m 0.540244,5.4051 a 3.2496667,3.2101351 0 0 0 -0.138891,-1.042608 2.4830788,2.4528725 0 0 0 -2.677508,-1.262104 h -1.126269 v 6.872981 h 1.867857 a 2.2872656,2.2594413 0 0 0 1.463744,-0.342963 2.2594906,2.2320042 0 0 0 0.608253,-2.044061 V 36.915295 Z M 35.650708,33.924657 h 3.737117 v 0.946578 h -3.731559 v 6.598611 h 4.524536 v 0.960297 H 34.575819 V 27.051674 h 5.627205 v 0.946579 h -4.546758 v 5.926404 z m -9.319877,0.891703 h -4.089854 v 7.613783 H 21.16053 V 27.051674 h 1.080447 V 33.8835 h 4.096796 v -6.831826 h 1.10267 v 15.378469 h -1.10267 V 34.81636 Z M 12.32949,42.430143 H 11.203216 V 27.998253 H 8.4354431 V 27.051674 H 15.14309 v 0.946579 h -2.8136 z"
     inkscape:connector-curvature="0"
     style="fill-rule:evenodd;stroke-width:1.3802737" />
  <defs
     id="defs12">
    <style
       id="style10">
      .cls-1 {
        fill-rule: evenodd;
      }
    </style>
  </defs>
</svg>
