<svg xmlns="http://www.w3.org/2000/svg" width="160" height="32" viewBox="0 0 160 32">
  <defs>
    <style>
      .cls-1 {
        fill: #fff;
        fill-rule: evenodd;
      }
    </style>
  </defs>
  <path id="THE_BIKE_SHOP" data-name="THE BIKE SHOP" class="cls-1" d="M414,38H554a10,10,0,0,1,10,10V60a10,10,0,0,1-10,10H414a10,10,0,0,1-10-10V48A10,10,0,0,1,414,38ZM554.6,54.276a3.644,3.644,0,0,1-2.841.992h-1.624v7.1h-1.105V46.8h2.481a4.337,4.337,0,0,1,2.864.617c0.857,0.684.857,1.7,0.857,2.845v1.764A3.041,3.041,0,0,1,554.6,54.276Zm-0.451-2.249V50.682c0-1.389-.022-2.139-0.654-2.6A2.414,2.414,0,0,0,551.8,47.7h-1.691v6.66h1.8a2.244,2.244,0,0,0,1.714-.551A2.475,2.475,0,0,0,554.15,52.027ZM538.679,62.569a3.359,3.359,0,0,1-2.48-.948,3.784,3.784,0,0,1-.7-2.58V50.263a5.851,5.851,0,0,1,.248-1.764,2.962,2.962,0,0,1,3.044-1.874,3.454,3.454,0,0,1,2.03.573c1.127,0.838,1.127,2.183,1.127,3.4v8.6a3.56,3.56,0,0,1-.473,2.029A3.066,3.066,0,0,1,538.679,62.569Zm2.21-11.38a5.544,5.544,0,0,0-.383-2.624,1.533,1.533,0,0,0-.722-0.728,2.419,2.419,0,0,0-2.277.088,2.408,2.408,0,0,0-.925,2.117v8.579a5.522,5.522,0,0,0,.18,1.764,2.02,2.02,0,0,0,1.985,1.213,2.055,2.055,0,0,0,1.24-.375,2.661,2.661,0,0,0,.9-2.448V51.189Zm-13.531,3.484h-4.1v7.7h-1.083V46.8h1.083v6.925h4.1V46.8h1.105V62.37h-1.105v-7.7Zm-14.592-.507a19.424,19.424,0,0,1,1.624,1.7,4.333,4.333,0,0,1,1.015,3.065,4.474,4.474,0,0,1-.564,2.536,3.067,3.067,0,0,1-2.706,1.147,4.167,4.167,0,0,1-1.827-.375,3.212,3.212,0,0,1-.518-0.375,2.711,2.711,0,0,1-.79-1.125,3.42,3.42,0,0,1-.18-1.257V57.276h1.105v1.257c0,0.331-.023.64,0,0.971a2.072,2.072,0,0,0,2.345,2.161,2.187,2.187,0,0,0,1.15-.287c0.564-.331.88-0.993,0.88-2.272a3.683,3.683,0,0,0-.564-2.227,12.579,12.579,0,0,0-1.8-2.007,16.087,16.087,0,0,1-1.827-1.963,4.555,4.555,0,0,1-.9-2.889,6.864,6.864,0,0,1,.091-1.169A2.591,2.591,0,0,1,512.2,46.58a3.721,3.721,0,0,1,1.871.441c1.105,0.706,1.105,2.029,1.105,3.154V51.3H514.1V49.91a4.185,4.185,0,0,0-.068-1.036,1.594,1.594,0,0,0-1.8-1.367,2.265,2.265,0,0,0-1.127.265,2.217,2.217,0,0,0-.79,2.073A3.962,3.962,0,0,0,511.684,53C512.022,53.394,512.383,53.769,512.766,54.166Zm-23.228-.4h3.743v0.948h-3.743V61.4h4.532v0.97h-5.615V46.8h5.638v0.97h-4.555v6Zm-8.435,8.6L478.194,54.3l-1.173,2.161v5.91h-1.082V46.8h1.1v7.63l3.969-7.63h1.24L478.87,53,482.3,62.37H481.1ZM467.662,46.8h1.15V62.37h-1.15V46.8ZM457.9,62.37h-3.18V46.8h3.022a2.651,2.651,0,0,1,2.052.661,2.592,2.592,0,0,1,.541,1.786v2.316a3.466,3.466,0,0,1-.113,1.059,2.02,2.02,0,0,1-1.759,1.3,3.3,3.3,0,0,1,1.692.6,2.712,2.712,0,0,1,.744,2.294v2.668a2.678,2.678,0,0,1-.789,2.227A3.3,3.3,0,0,1,457.9,62.37Zm1.353-11.049V49.447a2.685,2.685,0,0,0-.113-0.9c-0.293-.794-1.218-0.816-1.917-0.816h-1.4V53.5H456.9a3.129,3.129,0,0,0,1.083-.132A1.843,1.843,0,0,0,459.25,51.321Zm0.541,5.469a3.274,3.274,0,0,0-.135-1.059c-0.429-1.147-1.624-1.279-2.684-1.279h-1.128v6.969h1.872a2.3,2.3,0,0,0,1.466-.353c0.519-.4.609-0.926,0.609-2.073V56.791Zm-20.229-3.021h3.743v0.948h-3.743V61.4h4.532v0.97h-5.615V46.8h5.638v0.97h-4.555v6Zm-9.337.9H426.12v7.7h-1.082V46.8h1.082v6.925h4.105V46.8h1.1V62.37h-1.1v-7.7ZM416.2,62.37H415.07v-14.6H412.3V46.8h6.72v0.97H416.2v14.6Z" transform="translate(-404 -38)"/>
</svg>
