<?xml version="1.0" encoding="UTF-8" standalone="no"?>
<svg
   xmlns:dc="http://purl.org/dc/elements/1.1/"
   xmlns:cc="http://creativecommons.org/ns#"
   xmlns:rdf="http://www.w3.org/1999/02/22-rdf-syntax-ns#"
   xmlns:svg="http://www.w3.org/2000/svg"
   xmlns="http://www.w3.org/2000/svg"
   xmlns:sodipodi="http://sodipodi.sourceforge.net/DTD/sodipodi-0.dtd"
   xmlns:inkscape="http://www.inkscape.org/namespaces/inkscape"
   width="66"
   height="77"
   viewBox="0 0 66 77"
   version="1.1"
   id="svg15"
   sodipodi:docname="scroll.svg"
   inkscape:version="0.92.1 r15371">
  <metadata
     id="metadata19">
    <rdf:RDF>
      <cc:Work
         rdf:about="">
        <dc:format>image/svg+xml</dc:format>
        <dc:type
           rdf:resource="http://purl.org/dc/dcmitype/StillImage" />
        <dc:title></dc:title>
      </cc:Work>
    </rdf:RDF>
  </metadata>
  <sodipodi:namedview
     pagecolor="#ffffff"
     bordercolor="#666666"
     borderopacity="1"
     objecttolerance="10"
     gridtolerance="10"
     guidetolerance="10"
     inkscape:pageopacity="0"
     inkscape:pageshadow="2"
     inkscape:window-width="2560"
     inkscape:window-height="1361"
     id="namedview17"
     showgrid="false"
     inkscape:zoom="10.725983"
     inkscape:cx="65.59746"
     inkscape:cy="40.059187"
     inkscape:window-x="-9"
     inkscape:window-y="-9"
     inkscape:window-maximized="1"
     inkscape:current-layer="svg15" />
  <defs
     id="defs12">
    <style
       id="style10">
      .cls-1 {
        fill: #515050;
        fill-rule: evenodd;
      }
    </style>
  </defs>
  <path
     style="fill:#515050;fill-rule:evenodd"
     d="M 0.01757813,25.344786 A 24.67,24.67 0 0 0 45.677734,37.62213 a 10.714,10.714 0 0 0 9.105469,5.9375 v 6.175781 0.3125 h 5.4375 v -1 h -4.4375 v -5.480469 a 10.715,10.715 0 0 0 7.117188,-18.222656 h -4.751953 a 8.164,8.164 0 0 1 5.470703,7.695312 8.163,8.163 0 0 1 -7.835938,8.150391 v -6.900391 a 1.19,1.19 0 0 0 0.691406,-1.080078 1.191,1.191 0 1 0 -1.691406,1.080078 v 6.875 A 8.163,8.163 0 0 1 52.761719,25.344786 h -6.169922 c -0.01537,0.465805 -0.0413,0.928202 -0.08398,1.386719 a 10.674,10.674 0 0 0 -0.865234,1.46875 L 33.441406,25.344786 H 22.152344 a 2.716,2.716 0 0 0 4.466797,1.574219 h 0.417968 l 17.736329,3.857422 a 10.783,10.783 0 0 0 -0.207032,2.09375 c 0,0.327 0.01787,0.64875 0.04687,0.96875 A 21.941,21.941 0 0 1 2.7539062,25.344786 Z M 34.5,51.047911 a 1.5,1.5 0 0 0 -1.5,1.5 v 5 a 1.5,1.5 0 0 0 3,0 v -5 a 1.5,1.5 0 0 0 -1.5,-1.5 z m 0,10 a 1.5,1.5 0 0 0 -1.5,1.5 v 4 a 1.5,1.5 0 0 0 3,0 v -4 a 1.5,1.5 0 0 0 -1.5,-1.5 z m -4.679688,6.976563 a 1.8,1.8 0 0 0 -1.271484,0.59375 2.136,2.136 0 0 0 0,2.86914 l 4.615234,4.953125 h -0.002 a 1.8,1.8 0 0 0 0.228516,0.212891 1.8,1.8 0 0 0 0.148437,0.103515 1.8,1.8 0 0 0 0.320313,0.16211 1.8,1.8 0 0 0 0.171875,0.05469 1.8,1.8 0 0 0 0.890625,0.01172 1.8,1.8 0 0 0 0.339844,-0.119141 1.8,1.8 0 0 0 0.158203,-0.08398 1.8,1.8 0 0 0 0.15039,-0.09961 1.8,1.8 0 0 0 0.138672,-0.115235 1.8,1.8 0 0 0 0.126954,-0.126953 l 4.615234,-4.953125 a 2.136,2.136 0 0 0 0,-2.86914 1.8,1.8 0 0 0 -2.671875,0 L 34.5,72.139708 31.220703,68.618224 a 1.8,1.8 0 0 0 -1.400391,-0.59375 z"
     id="Scroll_icon_link"
     inkscape:connector-curvature="0" />
  <path
     style="fill:#ffff00;stroke-width:0.09323154"
     d="m -0.03754739,24.288904 c 0,-4.876837 1.87310069,-10.344914 4.94261029,-14.428791 C 6.706434,7.463451 9.0616554,5.3172253 11.709627,3.6593655 13.001341,2.8506406 15.195736,1.8384051 16.84149,1.2921281 c 2.915067,-0.9676016 5.308414,-1.3186047 8.433327,-1.2368128 1.076824,0.028185 2.398381,0.1189413 2.936794,0.2016809 9.55392,1.4681825 17.300028,8.1546418 20.083364,17.3360078 0.534864,1.764352 0.986965,4.353552 0.986965,5.652392 0,0.547362 0.101831,0.691472 0.330972,0.468383 0.04871,-0.04743 0.424203,-0.251574 0.834422,-0.453662 3.09104,-1.522749 6.547224,-1.515435 9.656596,0.02043 0.813089,0.401623 1.919701,1.169409 2.510121,1.741563 l 0.32631,0.316215 -2.371644,0.02495 c -2.202197,0.02316 -2.428677,0.01003 -3.169873,-0.183789 -1.098737,-0.287317 -2.888162,-0.284783 -3.959706,0.0056 -0.684396,0.185472 -0.959436,0.199827 -3.822493,0.199502 l -3.085036,-3.46e-4 -0.02305,-1.234968 C 46.421134,19.465975 44.681917,14.714539 41.688314,10.980672 40.057458,8.946535 37.522638,6.80829 35.291526,5.5846684 L 34.679838,5.249197 34.391659,5.9239934 C 34.233161,6.295131 33.539137,7.878393 32.849384,9.442352 c -0.689753,1.563959 -2.039672,4.626615 -2.999819,6.805903 -0.960147,2.179287 -2.015153,4.564616 -2.344459,5.30073 -0.329305,0.736114 -0.598737,1.372151 -0.598737,1.413414 0,0.04126 0.112338,0.246607 0.24964,0.456318 0.180309,0.2754 0.31339,0.381293 0.479187,0.381293 0.126252,0 0.276127,0.05807 0.333058,0.129035 0.05706,0.07113 1.228382,0.388383 2.610298,0.706993 1.378733,0.317876 2.595405,0.613762 2.703714,0.657523 0.112124,0.0453 -2.262151,0.08211 -5.513505,0.08547 l -5.710432,0.0059 V 24.87567 c 0,-0.914073 0.440446,-1.729845 1.258626,-2.331163 0.102554,-0.07537 0.13402,-0.138374 0.06992,-0.140006 -0.248659,-0.0063 -0.101317,-0.189427 0.152433,-0.189427 0.184927,0 0.3173,-0.07376 0.423637,-0.236051 0.08507,-0.129826 0.186154,-0.216589 0.224639,-0.192803 0.03848,0.02379 0.547477,-1.076176 1.131092,-2.444357 0.583615,-1.368182 2.27088,-5.319511 3.749475,-8.780732 1.478596,-3.461222 2.698373,-6.3499035 2.710614,-6.4192937 0.04997,-0.2832449 -3.0153,-1.0236331 -5.103823,-1.2327826 C 25.317377,2.7731046 22.783155,2.8441364 21.405708,3.0567463 10.971034,4.6673462 3.1850825,13.371486 2.7880787,23.869934 l -0.057291,1.515012 H 1.3466202 -0.03754739 Z"
     id="path3744"
     inkscape:connector-curvature="0" />
</svg>
